<?xml version="1.0" encoding="UTF-8"?>
<svg xmlns="http://www.w3.org/2000/svg" xmlns:xlink="http://www.w3.org/1999/xlink" width="20px" height="20px" viewBox="0 0 20 20" version="1.1">
<g id="surface1">
<path fill="#DDE2FF" d="M 19.480469 0 L 0.519531 0 C 0.234375 0 0 0.234375 0 0.519531 L 0 19.480469 C 0 19.765625 0.234375 20 0.519531 20 L 6.515625 20 C 6.804688 20 7.035156 19.765625 7.035156 19.480469 L 7.035156 18.09375 C 7.035156 17.808594 6.804688 17.574219 6.515625 17.574219 L 2.425781 17.574219 L 2.425781 2.425781 L 17.574219 2.425781 L 17.574219 17.574219 L 13.484375 17.574219 C 13.195312 17.574219 12.964844 17.808594 12.964844 18.09375 L 12.964844 19.480469 C 12.964844 19.765625 13.195312 20 13.484375 20 L 19.480469 20 C 19.765625 20 20 19.765625 20 19.480469 L 20 0.519531 C 20 0.234375 19.765625 0 19.480469 0 Z M 19.480469 0 "/>
<path fill="#DDE2FF" d="M 15.433594 13.464844 C 15.433594 13.328125 15.382812 13.195312 15.28125 13.097656 L 14.300781 12.117188 C 14.203125 12.019531 14.074219 11.964844 13.933594 11.964844 C 13.796875 11.964844 13.664062 12.019531 13.566406 12.117188 L 11.214844 14.472656 L 11.214844 7 C 11.214844 6.714844 10.980469 6.480469 10.691406 6.480469 L 9.308594 6.480469 C 9.019531 6.480469 8.785156 6.714844 8.785156 7 L 8.785156 14.472656 L 6.433594 12.117188 C 6.335938 12.019531 6.203125 11.964844 6.066406 11.964844 C 5.925781 11.964844 5.796875 12.019531 5.699219 12.117188 L 4.71875 13.097656 C 4.617188 13.195312 4.566406 13.328125 4.566406 13.464844 C 4.566406 13.605469 4.617188 13.734375 4.71875 13.832031 L 9.632812 18.75 C 9.730469 18.847656 9.859375 18.902344 10 18.902344 C 10.140625 18.902344 10.269531 18.847656 10.367188 18.75 L 15.28125 13.832031 C 15.382812 13.734375 15.433594 13.605469 15.433594 13.464844 Z M 15.433594 13.464844 "/>
</g>
</svg>
