<svg id="SvgjsSvg1020" width="288" height="288" xmlns="http://www.w3.org/2000/svg" version="1.1" xmlns:xlink="http://www.w3.org/1999/xlink" xmlns:svgjs="http://svgjs.com/svgjs"><defs id="SvgjsDefs1021"></defs><g id="SvgjsG1022"><svg xmlns="http://www.w3.org/2000/svg" width="288" height="288" viewBox="0 0 20 34.892"><g transform="matrix(1.18559 0 0 1.18559 -965.773 -331.784)" fill="#000000" class="color000 svgShape"><path fill="#ff4646" stroke="#d73534" d="m 817.11249,282.97118 c -1.25816,1.34277 -2.04623,3.29881 -2.01563,5.13867 0.0639,3.84476 1.79693,5.3002 4.56836,10.59179 0.99832,2.32851 2.04027,4.79237 3.03125,8.87305 0.13772,0.60193 0.27203,1.16104 0.33416,1.20948 0.0621,0.0485 0.19644,-0.51262 0.33416,-1.11455 0.99098,-4.08068 2.03293,-6.54258 3.03125,-8.87109 2.77143,-5.29159 4.50444,-6.74704 4.56836,-10.5918 0.0306,-1.83986 -0.75942,-3.79785 -2.01758,-5.14062 -1.43724,-1.53389 -3.60504,-2.66908 -5.91619,-2.71655 -2.31115,-0.0475 -4.4809,1.08773 -5.91814,2.62162 z" class="colorff4646 svgShape colorStroked73534 svgStroke"></path><circle cx="823.031" cy="288.253" r="3.035" fill="#590000" class="color590000 svgShape"></circle></g></svg></g></svg>